<?xml version="1.0" encoding="utf-8"?>
<!-- Generator: Adobe Illustrator 18.1.1, SVG Export Plug-In . SVG Version: 6.00 Build 0)  -->
<svg version="1.1" id="Layer_1" xmlns="http://www.w3.org/2000/svg" xmlns:xlink="http://www.w3.org/1999/xlink" x="0px" y="0px"
	 viewBox="0 0 555 758.4" enable-background="new 0 0 555 758.4" xml:space="preserve">
<g>
	<path fill="#F1F0F0" d="M73.5,1.4h20.4v20.7v127.2l64.4-136l5.3-11.8h13.1h57.5h32.2l-13.5,29.2L138.6,274.4l114.7,269.4l11.8,28.6
		h-30.9h-57.5h-13.5l-5.3-12.5L93.9,408.1v143.6v20.7H73.5H20.3H-0.1v-20.7V22.1V1.4h20.4H73.5z"/>
</g>
<g>
	<path fill="#F1F0F0" d="M43.6,641.2h4.2v4.2v10.8v4.2h-4.2h-24v29.5h13.2H37v4.2V705v4.2h-4.2H19.6v44.6v4.2h-4.2H4.5H0.4v-4.2
		V645.4v-4.2h4.2H43.6z"/>
	<path fill="#F1F0F0" d="M111.4,641.2h4.2v4.2v10.8v4.2h-4.2H88.8v29.5h11.8h4.2v4.2V705v4.2h-4.2H88.8v29.6h22.6h4.2v4.2v10.8v4.2
		h-4.2H73.8h-4.2v-4.2V645.4v-4.2h4.2H111.4z"/>
	<path fill="#F1F0F0" d="M161,739.9l-2.9,14.6l-0.7,3.5h-4.1h-12.6H135l1-4.9l21.4-108.4l0.7-3.5h4.1h13.6h4.1l0.7,3.5L202.1,753
		l1,4.9h-5.8h-12.6h-4.1l-0.7-3.5l-2.9-14.6H161z M169,690l-4.5,31.4h9.1L169,690z M165.1,719.2l3.9-19.9L165.1,719.2z"/>
	<path fill="#F1F0F0" d="M223.6,660.4h-4.2v-4.2v-10.8v-4.2h4.2h16.3h10.8H267h4.2v4.2v10.8v4.2H267h-12v93.3v4.2h-4.2h-10.8h-4.2
		v-4.2v-93.3H223.6z"/>
	<path fill="#F1F0F0" d="M342.9,732.1c0,7.1-2.5,13.2-7.6,18.3c-5.1,5.1-11.2,7.6-18.3,7.6c-7.2,0-13.3-2.5-18.3-7.6
		c-5.1-5.1-7.6-11.2-7.6-18.3v-86.7v-4.2h4.2h10.9h4.2v4.2v86.7c0,1.8,0.6,3.4,1.9,4.7c1.3,1.3,2.9,1.9,4.7,1.9s3.3-0.7,4.6-1.9
		s2-2.9,2-4.7v-86.7v-4.2h4.2h10.8h4.2v4.2V732.1z"/>
	<path fill="#F1F0F0" d="M370.2,757.9h-4.2v-4.2v-53v-24.3v-31v-4.2h4.2h10.9h6.7c7.9,0,14.6,2.8,20.2,8.4
		c5.6,5.6,8.4,12.3,8.4,20.2v17.5c0,7.3-2.4,13.6-7.3,19c4.8,5.4,7.3,11.7,7.3,19v22c-0.2,4.7,0.4,8.3,1.7,10.8H399
		c-0.8-1.3-1.3-3-1.5-5c-0.2-2-0.3-3.9-0.3-5.8v-22c0-2.6-0.9-4.8-2.8-6.6c-1.8-1.8-4-2.8-6.6-2.8h-2.6v37.9v4.2h-4.2H370.2z
		 M385.3,696.6h2.6c2.6,0,4.8-0.9,6.6-2.8c1.8-1.8,2.8-4,2.8-6.6v-17.5c0-2.6-0.9-4.8-2.8-6.6c-1.8-1.8-4-2.8-6.6-2.8h-2.6V696.6z"
		/>
	<path fill="#F1F0F0" d="M481.5,641.2h4.2v4.2v10.8v4.2h-4.2h-22.6v29.5h11.8h4.2v4.2V705v4.2h-4.2h-11.8v29.6h22.6h4.2v4.2v10.8
		v4.2h-4.2h-37.6h-4.2v-4.2V645.4v-4.2h4.2H481.5z"/>
	<path fill="#F1F0F0" d="M532.1,757.9c-6.9,0-12.8-2.5-17.4-7.5c-4.6-5-6.9-11.1-6.9-18.4v-8.1v-4.2h4.2h10.8h4.2v4.2v8.1
		c0,2.2,0.5,4,1.5,5.2c0.9,1,2.1,1.5,3.5,1.5c1.2,0,2-0.4,2.5-1.1c0.7-1.1,1-2.9,1-5.5v-12.8c0-2.8-0.4-4.7-1.1-5.6
		c-0.7-0.9-1.5-1.6-2.4-2.4c-0.9-0.7-1.8-1.4-2.5-1.9c-6.8-4.5-12.1-8.9-15.7-13c-4-4.6-6.1-8.9-6.1-13v-16.2
		c0-7.3,2.3-13.5,6.9-18.4c4.6-5,10.4-7.5,17.4-7.5c6.8,0,12.3,2.5,16.5,7.4c4.1,4.8,6.2,11,6.2,18.5v8.1v4.2h-4.2h-10.9h-4.2v-4.2
		v-8.1c0-2.6-0.3-4.4-1-5.5c-0.4-0.8-1.3-1.1-2.5-1.1c-1.5,0-2.7,0.5-3.5,1.5c-1,1.3-1.5,3-1.5,5.2v13c0,2,0.7,3.6,1.9,4.8
		c2.5,2.4,5.1,4.4,7.8,6c5.8,3.7,10.2,7.5,13.2,11.5c3.3,4.3,4.9,8.8,4.9,13.5v16.3c0,7.6-2.1,13.8-6.2,18.5
		C544.4,755.5,538.9,757.9,532.1,757.9z"/>
</g>
<rect x="0" y="607" fill="#F1F0F0" width="554.9" height="11"/>
<g>
	<path fill="#F1F0F0" d="M517.6,37.7c24.8,24.5,37.2,54.4,37.2,89.4v13.2V161H534h-52.9h-20.7v-20.7v-13.2c0-9-3.2-16.7-9.5-23
		c-6.1-6.4-13.7-9.5-22.7-9.5s-16.7,3.2-23,9.5c-6.4,6.4-9.5,14-9.5,23V445c0,9,3.2,16.7,9.5,23c6.6,6.4,14.2,9.5,23,9.5
		c8.8,0,16.3-3.2,22.7-9.5s9.5-14,9.5-23v-13.2v-20.7h20.7H534h20.7v20.7V445c0,34.8-12.4,64.7-37.2,89.4
		c-24.8,24.8-54.6,37.2-89.4,37.2c-35.3,0-65.1-12.4-89.4-37.2c-24.8-24.8-37.2-54.6-37.2-89.4V127.1c0-35.1,12.4-64.9,37.2-89.4
		c24.5-25,54.4-37.5,89.4-37.5C462.8,0.2,492.6,12.7,517.6,37.7z"/>
</g>
<g>
</g>
<g>
</g>
<g>
</g>
<g>
</g>
<g>
</g>
<g>
</g>
</svg>
